<svg xmlns="http://www.w3.org/2000/svg" viewBox="0 0 400 720" width="400" height="720" role="img" aria-label="Placeholder bottle 4">
  <defs>
    <linearGradient id="liq4" x1="0" y1="0" x2="1" y2="1">
      <stop offset="0%" stop-color="#7FC7F5"/>
      <stop offset="55%" stop-color="#3E9BD8"/>
      <stop offset="100%" stop-color="#1F6FA8"/>
    </linearGradient>
    <linearGradient id="glass4" x1="0" y1="0" x2="1" y2="0">
      <stop offset="0%" stop-color="#ffffff" stop-opacity=".55"/>
      <stop offset="22%" stop-color="#ffffff" stop-opacity=".06"/>
      <stop offset="78%" stop-color="#000000" stop-opacity=".05"/>
      <stop offset="100%" stop-color="#000000" stop-opacity=".16"/>
    </linearGradient>
    <linearGradient id="cap4" x1="0" y1="0" x2="1" y2="0">
      <stop offset="0%" stop-color="#1F2A31"/>
      <stop offset="45%" stop-color="#344450"/>
      <stop offset="100%" stop-color="#1F2A31"/>
    </linearGradient>
    <clipPath id="clip4">
      <path d="M168 118 C168 170 96 196 96 246 L96 630 C96 668 126 698 164 698 L236 698 C274 698 304 668 304 630 L304 246 C304 196 232 170 232 118 Z"/>
    </clipPath>
  </defs>

  <!-- soya -->
  <ellipse cx="200" cy="706" rx="104" ry="12" fill="#000" opacity=".13"/>

  <!-- qopqoq -->
  <rect x="158" y="10" width="84" height="54" rx="10" fill="url(#cap4)"/>
  <rect x="156" y="58" width="88" height="12" rx="6" fill="#1F2A31"/>
  <g opacity=".28" fill="#000">
    <rect x="162" y="16" width="3" height="42" rx="1.5"/>
    <rect x="172" y="16" width="3" height="42" rx="1.5"/>
    <rect x="182" y="16" width="3" height="42" rx="1.5"/>
    <rect x="192" y="16" width="3" height="42" rx="1.5"/>
    <rect x="202" y="16" width="3" height="42" rx="1.5"/>
    <rect x="212" y="16" width="3" height="42" rx="1.5"/>
    <rect x="222" y="16" width="3" height="42" rx="1.5"/>
    <rect x="232" y="16" width="3" height="42" rx="1.5"/>
  </g>

  <!-- bo'yin -->
  <path d="M168 68 L232 68 L232 120 L168 120 Z" fill="#3E9BD8" opacity=".9"/>

  <!-- tana -->
  <path d="M168 118 C168 170 96 196 96 246 L96 630 C96 668 126 698 164 698 L236 698 C274 698 304 668 304 630 L304 246 C304 196 232 170 232 118 Z" fill="url(#liq4)"/>

  <!-- suyuqlik sathi -->
  <g clip-path="url(#clip4)">
    <rect x="80" y="120" width="240" height="86" fill="#fff" opacity=".16"/>
    <ellipse cx="200" cy="206" rx="120" ry="14" fill="#fff" opacity=".22"/>
    <!-- yorug'lik -->
    <rect x="0" y="0" width="400" height="720" fill="url(#glass4)"/>
    <rect x="118" y="240" width="20" height="380" rx="10" fill="#fff" opacity=".30"/>
    <rect x="150" y="270" width="8" height="300" rx="4" fill="#fff" opacity=".16"/>
  </g>

  <!-- yorliq -->
  <rect x="100" y="352" width="200" height="196" rx="8" fill="#ffffff" opacity=".94"/>
  <rect x="100" y="352" width="200" height="196" rx="8" fill="none" stroke="#000" stroke-opacity=".07"/>
  <text x="200" y="430" text-anchor="middle" font-family="Manrope, Inter, system-ui, sans-serif"
        font-size="34" font-weight="800" letter-spacing="1" fill="#111">BARFF</text>
  <text x="200" y="462" text-anchor="middle" font-family="Inter, system-ui, sans-serif"
        font-size="13" font-weight="600" letter-spacing="3" fill="#3E9BD8">04</text>
  <line x1="140" y1="486" x2="260" y2="486" stroke="#000" stroke-opacity=".10"/>
  <text x="200" y="516" text-anchor="middle" font-family="Inter, system-ui, sans-serif"
        font-size="9" font-weight="500" letter-spacing="2.4" fill="#8a8a8a">PLACEHOLDER</text>

  <!-- shisha qirrasi -->
  <path d="M168 118 C168 170 96 196 96 246 L96 630 C96 668 126 698 164 698 L236 698 C274 698 304 668 304 630 L304 246 C304 196 232 170 232 118 Z"
        fill="none" stroke="#000" stroke-opacity=".10" stroke-width="2"/>
</svg>
